<svg width="24" height="24" viewBox="0 0 24 24" fill="none" xmlns="http://www.w3.org/2000/svg">
<rect x="2" y="2" width="20" height="20" rx="10" fill="#AFE900"/>
<path fill-rule="evenodd" clip-rule="evenodd" d="M8.89217 9.28157L7.33176 8.15086C7.09522 8.54362 6.89404 8.95661 6.73058 9.38497L8.55902 9.97666C8.65432 9.73774 8.76562 9.50551 8.89217 9.28157ZM10.3923 7.5496L8.98407 6.2207C8.55135 6.58402 8.15942 6.99333 7.8152 7.44141L9.37082 8.5683C9.66768 8.18763 10.0108 7.84543 10.3923 7.5496ZM8.29864 10.7991L6.47115 10.2074C6.35745 10.65 6.28312 11.1017 6.24906 11.5574H8.17419C8.19894 11.3021 8.24051 11.0488 8.29864 10.7991ZM8.47861 14.0696L6.65304 14.6613C6.80782 15.1042 7.0033 15.5317 7.23699 15.9385L8.80218 14.8049C8.67726 14.566 8.56915 14.3188 8.47861 14.0648V14.0696ZM9.25594 15.5364L7.70416 16.6594C8.06448 17.1539 8.48223 17.6039 8.94865 17.9998L10.354 16.6729C9.93798 16.3439 9.56859 15.96 9.25594 15.5316V15.5364ZM8.16079 12.5588H6.24619C6.26806 12.9887 6.32602 13.4159 6.41946 13.836L8.25652 13.2415C8.21178 13.0143 8.17982 12.7848 8.16079 12.554V12.5588Z" fill="black"/>
<path fill-rule="evenodd" clip-rule="evenodd" d="M13.9237 8.40527C13.0365 8.40563 12.1786 8.72304 11.5047 9.30026C10.8309 9.87748 10.3854 10.6765 10.2487 11.5533H12.1336C12.271 11.1196 12.561 10.7505 12.9498 10.5144C13.3385 10.2782 13.7997 10.191 14.2479 10.2689C14.696 10.3469 15.1007 10.5846 15.3869 10.9381C15.6732 11.2917 15.8216 11.737 15.8046 12.1916C15.7877 12.6462 15.6065 13.0792 15.2948 13.4104C14.983 13.7417 14.5617 13.9486 14.109 13.9929C13.6563 14.0373 13.2029 13.916 12.8328 13.6515C12.4627 13.3871 12.201 12.9974 12.0963 12.5547H10.2353C10.3187 13.2666 10.6062 13.9391 11.063 14.4914C11.5199 15.0436 12.1267 15.4519 12.8102 15.6671C13.4938 15.8824 14.225 15.8953 14.9158 15.7045C15.6066 15.5136 16.2274 15.1271 16.7036 14.5914C17.1798 14.0558 17.4909 13.3938 17.5995 12.6854C17.7082 11.9769 17.6096 11.2521 17.3159 10.5984C17.0221 9.94464 16.5456 9.38979 15.9437 9.00068C15.3419 8.61157 14.6404 8.40479 13.9237 8.40527Z" fill="black"/>
</svg>
