<svg width="214" height="240" viewBox="0 0 214 240" fill="none" xmlns="http://www.w3.org/2000/svg">
<g clip-path="url(#clip0_34_2)">
<mask id="path-1-outside-1_34_2" maskUnits="userSpaceOnUse" x="0" y="0" width="214" height="240" fill="black">
<rect fill="white" width="214" height="240"/>
<path d="M106.103 20.2887C106.412 20.11 106.793 20.11 107.103 20.2887L192.705 69.7113C193.014 69.89 193.205 70.2201 193.205 70.5773V169.423C193.205 169.78 193.014 170.11 192.705 170.289L107.103 219.711C106.793 219.89 106.412 219.89 106.103 219.711L20.5 170.289C20.1906 170.11 20 169.78 20 169.423V70.5773C20 70.2201 20.1906 69.89 20.5 69.7113L106.103 20.2887Z"/>
</mask>
<path d="M107.103 20.2887L117.103 2.96817L107.103 20.2887ZM106.103 20.2887L96.1025 2.96817L106.103 20.2887ZM20.5 69.7113L10.5 52.3908L20.5 69.7113ZM20.5 170.289L10.5 187.609L10.5 187.609L20.5 170.289ZM107.103 219.711L97.1025 202.391L107.103 219.711ZM106.103 219.711L116.103 202.391L106.103 219.711ZM192.705 170.289L202.705 187.609L192.705 170.289ZM192.705 69.7113L182.705 87.0318L192.705 69.7113ZM173.205 70.5773V169.423H213.205V70.5773H173.205ZM182.705 152.968L97.1025 202.391L117.103 237.032L202.705 187.609L182.705 152.968ZM116.103 202.391L30.5 152.968L10.5 187.609L96.1025 237.032L116.103 202.391ZM40 169.423V70.5773H0V169.423H40ZM97.1025 37.6092L182.705 87.0318L202.705 52.3908L117.103 2.96817L97.1025 37.6092ZM30.5 87.0318L116.103 37.6092L96.1025 2.96817L10.5 52.3908L30.5 87.0318ZM117.103 2.96817C110.605 -0.783102 102.6 -0.783142 96.1025 2.96817L116.103 37.6092C110.224 41.0032 102.981 41.0032 97.1025 37.6092L117.103 2.96817ZM40 70.5773C40 77.3654 36.3786 83.6378 30.5 87.0318L10.5 52.3908C4.00261 56.1421 0 63.0747 0 70.5773H40ZM30.5 152.968C36.3787 156.362 40 162.635 40 169.423H0C0 176.925 4.00254 183.858 10.5 187.609L30.5 152.968ZM97.1025 202.391C102.981 198.997 110.224 198.997 116.103 202.391L96.1025 237.032C102.6 240.783 110.605 240.783 117.103 237.032L97.1025 202.391ZM173.205 169.423C173.205 162.635 176.826 156.362 182.705 152.968L202.705 187.609C209.202 183.858 213.205 176.925 213.205 169.423H173.205ZM213.205 70.5773C213.205 63.0748 209.203 56.1421 202.705 52.3908L182.705 87.0318C176.826 83.6378 173.205 77.3654 173.205 70.5773H213.205Z" fill="#673910" mask="url(#path-1-outside-1_34_2)"/>
<path d="M193.205 170V70L106.603 120V220L193.205 170Z" fill="#AA561F"/>
<path d="M20 170L106.603 220V120L20 70V170Z" fill="#F1B155"/>
<path d="M193.205 70L106.603 20L20 70L106.603 120L193.205 70Z" fill="#C56D28"/>
<path d="M94.42 155.58L88.7 121.26C93.3933 120.527 98.16 119.573 103 118.4C107.987 117.08 112.753 115.54 117.3 113.78C121.993 112.02 126.173 110.04 129.84 107.84C133.507 105.493 136.367 102.927 138.42 100.14C140.62 97.2067 141.72 94.0533 141.72 90.68C141.72 85.9867 140.107 82.1733 136.88 79.24C133.8 76.3067 129.767 74.18 124.78 72.86C119.94 71.3933 114.88 70.66 109.6 70.66C98.0133 70.66 87.9667 72.7867 79.46 77.04C70.9533 81.1467 63.7667 86.72 57.9 93.76L41.4 76.6C49.32 67.36 59.1467 59.9533 70.88 54.38C82.76 48.8067 96.2533 46.02 111.36 46.02C123.093 46.02 133.433 47.9267 142.38 51.74C151.327 55.5533 158.293 60.76 163.28 67.36C168.413 73.8133 170.98 81.22 170.98 89.58C170.98 94.86 169.513 99.92 166.58 104.76C163.647 109.453 159.613 113.78 154.48 117.74C149.493 121.7 143.773 125.22 137.32 128.3C131.013 131.233 124.413 133.653 117.52 135.56L113.56 155.58H94.42ZM82.76 187.92C82.76 183.813 84.5933 180.073 88.26 176.7C92.0733 173.18 97.8667 171.42 105.64 171.42C113.413 171.42 119.133 172.96 122.8 176.04C126.613 178.973 128.52 182.933 128.52 187.92C128.52 192.027 126.613 195.84 122.8 199.36C119.133 202.733 113.413 204.42 105.64 204.42C97.8667 204.42 92.0733 202.953 88.26 200.02C84.5933 196.94 82.76 192.907 82.76 187.92Z" fill="white"/>
<path d="M94.42 155.58L89.488 156.402L90.1844 160.58H94.42V155.58ZM88.7 121.26L87.9281 116.32L82.9376 117.1L83.768 122.082L88.7 121.26ZM103 118.4L104.178 123.259L104.229 123.247L104.279 123.234L103 118.4ZM117.3 113.78L115.544 109.098L115.52 109.108L115.495 109.117L117.3 113.78ZM129.84 107.84L132.412 112.127L132.474 112.09L132.535 112.051L129.84 107.84ZM138.42 100.14L134.42 97.14L134.407 97.1569L134.395 97.174L138.42 100.14ZM136.88 79.24L133.432 82.8607L133.474 82.9007L133.517 82.9397L136.88 79.24ZM124.78 72.86L123.33 77.6451L123.415 77.6708L123.501 77.6935L124.78 72.86ZM79.46 77.04L81.6337 81.5428L81.665 81.5277L81.6961 81.5121L79.46 77.04ZM57.9 93.76L54.2958 97.2255L58.1662 101.251L61.7411 96.9609L57.9 93.76ZM41.4 76.6L37.6037 73.346L34.6492 76.793L37.7958 80.0655L41.4 76.6ZM70.88 54.38L68.7564 49.8534L68.7455 49.8585L68.7347 49.8636L70.88 54.38ZM142.38 51.74L144.341 47.1404L144.341 47.1404L142.38 51.74ZM163.28 67.36L159.291 70.3742L159.328 70.4239L159.367 70.4726L163.28 67.36ZM166.58 104.76L170.82 107.41L170.838 107.381L170.856 107.352L166.58 104.76ZM154.48 117.74L151.426 113.781L151.398 113.803L151.371 113.824L154.48 117.74ZM137.32 128.3L139.429 132.834L139.451 132.823L139.474 132.812L137.32 128.3ZM117.52 135.56L116.187 130.741L113.214 131.563L112.615 134.59L117.52 135.56ZM113.56 155.58V160.58H117.668L118.465 156.55L113.56 155.58ZM88.26 176.7L91.6453 180.38L91.6514 180.374L88.26 176.7ZM122.8 176.04L119.584 179.869L119.666 179.938L119.751 180.003L122.8 176.04ZM122.8 199.36L126.185 203.04L126.191 203.034L122.8 199.36ZM88.26 200.02L85.044 203.849L85.1263 203.918L85.2114 203.983L88.26 200.02ZM99.352 154.758L93.632 120.438L83.768 122.082L89.488 156.402L99.352 154.758ZM89.4719 126.2C94.308 125.444 99.2102 124.464 104.178 123.259L101.822 113.541C97.1098 114.683 92.4786 115.609 87.9281 116.32L89.4719 126.2ZM104.279 123.234C109.434 121.869 114.377 120.273 119.105 118.443L115.495 109.117C111.13 110.807 106.539 112.291 101.721 113.566L104.279 123.234ZM119.056 118.462C123.986 116.613 128.446 114.507 132.412 112.127L127.268 103.553C123.9 105.573 120.001 107.427 115.544 109.098L119.056 118.462ZM132.535 112.051C136.59 109.456 139.948 106.495 142.445 103.106L134.395 97.174C132.785 99.3588 130.423 101.53 127.145 103.629L132.535 112.051ZM142.42 103.14C145.209 99.4209 146.72 95.2307 146.72 90.68H136.72C136.72 92.8759 136.031 94.9924 134.42 97.14L142.42 103.14ZM146.72 90.68C146.72 84.6986 144.598 79.4995 140.243 75.5403L133.517 82.9397C135.615 84.8472 136.72 87.2748 136.72 90.68H146.72ZM140.328 75.6193C136.522 71.9942 131.688 69.5163 126.059 68.0265L123.501 77.6935C127.846 78.8437 131.078 80.6191 133.432 82.8607L140.328 75.6193ZM126.23 68.0749C120.9 66.4596 115.35 65.66 109.6 65.66V75.66C114.41 75.66 118.98 76.3271 123.33 77.6451L126.23 68.0749ZM109.6 65.66C97.404 65.66 86.5602 67.8998 77.2239 72.5679L81.6961 81.5121C89.3732 77.6736 98.6227 75.66 109.6 75.66V65.66ZM77.2863 72.5372C68.1576 76.9442 60.3964 82.9541 54.0589 90.5591L61.7411 96.9609C67.137 90.4859 73.7491 85.3492 81.6337 81.5428L77.2863 72.5372ZM61.5042 90.2945L45.0042 73.1344L37.7958 80.0655L54.2958 97.2255L61.5042 90.2945ZM45.1963 79.8539C52.6302 71.181 61.8813 64.1898 73.0253 58.8964L68.7347 49.8636C56.412 55.7169 46.0098 63.539 37.6037 73.346L45.1963 79.8539ZM73.0036 58.9066C84.1256 53.6889 96.8766 51.02 111.36 51.02V41.02C95.6301 41.02 81.3944 43.9244 68.7564 49.8534L73.0036 58.9066ZM111.36 51.02C122.556 51.02 132.207 52.8391 140.42 56.3396L144.341 47.1404C134.66 43.0143 123.631 41.02 111.36 41.02V51.02ZM140.42 56.3396C148.705 59.8712 154.916 64.5843 159.291 70.3742L167.269 64.3458C161.671 56.9356 153.948 51.2355 144.341 47.1404L140.42 56.3396ZM159.367 70.4726C163.786 76.0279 165.98 82.3336 165.98 89.58H175.98C175.98 80.1064 173.041 71.5987 167.193 64.2474L159.367 70.4726ZM165.98 89.58C165.98 93.8803 164.799 98.0516 162.304 102.168L170.856 107.352C174.228 101.788 175.98 95.8397 175.98 89.58H165.98ZM162.34 102.11C159.77 106.222 156.168 110.123 151.426 113.781L157.534 121.699C163.058 117.437 167.523 112.685 170.82 107.41L162.34 102.11ZM151.371 113.824C146.713 117.524 141.321 120.85 135.166 123.788L139.474 132.812C146.226 129.59 152.274 125.876 157.589 121.656L151.371 113.824ZM135.211 123.766C129.162 126.58 122.822 128.906 116.187 130.741L118.853 140.379C126.005 138.401 132.865 135.887 139.429 132.834L135.211 123.766ZM112.615 134.59L108.655 154.61L118.465 156.55L122.425 136.53L112.615 134.59ZM113.56 150.58H94.42V160.58H113.56V150.58ZM87.76 187.92C87.76 185.504 88.7705 183.024 91.6453 180.38L84.8747 173.02C80.4162 177.122 77.76 182.122 77.76 187.92H87.76ZM91.6514 180.374C94.1731 178.046 98.5121 176.42 105.64 176.42V166.42C97.2212 166.42 89.9735 168.314 84.8686 173.026L91.6514 180.374ZM105.64 176.42C112.921 176.42 117.231 177.892 119.584 179.869L126.016 172.211C121.036 168.028 113.905 166.42 105.64 166.42V176.42ZM119.751 180.003C122.283 181.95 123.52 184.419 123.52 187.92H133.52C133.52 181.447 130.944 175.996 125.849 172.077L119.751 180.003ZM123.52 187.92C123.52 190.282 122.485 192.846 119.409 195.686L126.191 203.034C130.742 198.834 133.52 193.771 133.52 187.92H123.52ZM119.415 195.68C117.07 197.838 112.834 199.42 105.64 199.42V209.42C113.993 209.42 121.197 207.629 126.185 203.04L119.415 195.68ZM105.64 199.42C98.3414 199.42 93.8547 198.015 91.3086 196.057L85.2114 203.983C90.2919 207.891 97.392 209.42 105.64 209.42V199.42ZM91.476 196.191C88.9929 194.106 87.76 191.5 87.76 187.92H77.76C77.76 194.314 80.1938 199.774 85.044 203.849L91.476 196.191Z" fill="black"/>
</g>
<defs>
<clipPath id="clip0_34_2">
<rect width="214" height="240" fill="white"/>
</clipPath>
</defs>
</svg>
